<svg width="495" height="350" viewBox="0 0 495 350" 
     xmlns="http://www.w3.org/2000/svg" role="img" 
     aria-labelledby="descId">
  <title id="titleId">Code Statistics</title>
  <desc id="descId">Lines of code statistics for vishwambharaRH</desc>
  
  <style>
    .header { font: 600 18px 'Segoe UI', Ubuntu, Sans-Serif; fill: #2f80ed }
    .stat-value { font: 600 20px 'Segoe UI', Ubuntu, Sans-Serif; fill: #333 }
    .stat-label { font: 400 12px 'Segoe UI', Ubuntu, Sans-Serif; fill: #666 }
    .lang-name { font: 400 12px 'Segoe UI', Ubuntu, Sans-Serif; fill: #333 }
    .lang-percent { font: 400 11px 'Segoe UI', Ubuntu, Sans-Serif; fill: #666 }
    .lang-lines { font: 400 11px 'Segoe UI', Ubuntu, monospace; fill: #666 }
  </style>
  
  <rect width="495" height="350" fill="#fffefe" rx="4.5" stroke="#e4e2e2" stroke-width="1"/>
  
  <g transform="translate(20, 25)">
    <text x="0" y="0" class="header">Code Statistics</text>
    
    <g transform="translate(0, 30)">
      <text x="0" y="0" class="stat-label">Total Lines of Code</text>
      <text x="0" y="20" class="stat-value">61,823</text>
    </g>
    
    <g transform="translate(0, 70)">
      <text x="0" y="0" class="stat-label">Language Distribution</text>
      <g transform="translate(0, 15)">
        <rect x="0" y="0" width="168.41248402698025" height="8" fill="#3776AB" rx="2"/>
      <rect x="168.41248402698025" y="0" width="75.78304190996877" height="8" fill="#555555" rx="2"/>
      <rect x="244.19552593694902" y="0" width="41.280672241722336" height="8" fill="#3178C6" rx="2"/>
      <rect x="285.4761981786714" y="0" width="33.074583892726004" height="8" fill="#E34C26" rx="2"/>
      <rect x="318.5507820713974" y="0" width="30.196933180208017" height="8" fill="#F7DF1E" rx="2"/>
      <rect x="348.7477152516054" y="0" width="16.000032350419747" height="8" fill="#F34B7D" rx="2"/>
      <rect x="364.7477476020252" y="0" width="15.808679617618038" height="8" fill="#563D7C" rx="2"/>
      <rect x="380.55642721964324" y="0" width="14.859275674101873" height="8" fill="#F05138" rx="2"/>
      </g>
    </g>
    
    <g transform="translate(0, 110)">
      
    <g transform="translate(0, 0)">
      <circle cx="5" cy="6" r="5" fill="#3776AB"/>
      <text x="15" y="10" class="lang-name">Python</text>
      <text x="280" y="10" class="lang-percent" text-anchor="end">37.0%</text>
      <text x="440" y="10" class="lang-lines" text-anchor="end">22.9K lines</text>
    </g>

    <g transform="translate(0, 25)">
      <circle cx="5" cy="6" r="5" fill="#555555"/>
      <text x="15" y="10" class="lang-name">Markdown</text>
      <text x="280" y="10" class="lang-percent" text-anchor="end">16.7%</text>
      <text x="440" y="10" class="lang-lines" text-anchor="end">10.3K lines</text>
    </g>

    <g transform="translate(0, 50)">
      <circle cx="5" cy="6" r="5" fill="#3178C6"/>
      <text x="15" y="10" class="lang-name">TypeScript</text>
      <text x="280" y="10" class="lang-percent" text-anchor="end">9.1%</text>
      <text x="440" y="10" class="lang-lines" text-anchor="end">5.6K lines</text>
    </g>

    <g transform="translate(0, 75)">
      <circle cx="5" cy="6" r="5" fill="#E34C26"/>
      <text x="15" y="10" class="lang-name">HTML</text>
      <text x="280" y="10" class="lang-percent" text-anchor="end">7.3%</text>
      <text x="440" y="10" class="lang-lines" text-anchor="end">4.5K lines</text>
    </g>

    <g transform="translate(0, 100)">
      <circle cx="5" cy="6" r="5" fill="#F7DF1E"/>
      <text x="15" y="10" class="lang-name">JavaScript</text>
      <text x="280" y="10" class="lang-percent" text-anchor="end">6.6%</text>
      <text x="440" y="10" class="lang-lines" text-anchor="end">4.1K lines</text>
    </g>

    <g transform="translate(0, 125)">
      <circle cx="5" cy="6" r="5" fill="#F34B7D"/>
      <text x="15" y="10" class="lang-name">C++</text>
      <text x="280" y="10" class="lang-percent" text-anchor="end">3.5%</text>
      <text x="440" y="10" class="lang-lines" text-anchor="end">2.2K lines</text>
    </g>

    <g transform="translate(0, 150)">
      <circle cx="5" cy="6" r="5" fill="#563D7C"/>
      <text x="15" y="10" class="lang-name">CSS</text>
      <text x="280" y="10" class="lang-percent" text-anchor="end">3.5%</text>
      <text x="440" y="10" class="lang-lines" text-anchor="end">2.1K lines</text>
    </g>

    <g transform="translate(0, 175)">
      <circle cx="5" cy="6" r="5" fill="#F05138"/>
      <text x="15" y="10" class="lang-name">Swift</text>
      <text x="280" y="10" class="lang-percent" text-anchor="end">3.3%</text>
      <text x="440" y="10" class="lang-lines" text-anchor="end">2.0K lines</text>
    </g>
    </g>
  </g>
</svg>