<svg width="495" height="350" viewBox="0 0 495 350" 
     xmlns="http://www.w3.org/2000/svg" role="img" 
     aria-labelledby="descId">
  <title id="titleId">Code Statistics</title>
  <desc id="descId">Lines of code statistics for vishwambharaRH</desc>
  
  <style>
    .header { font: 600 18px 'Segoe UI', Ubuntu, Sans-Serif; fill: #2f80ed }
    .stat-value { font: 600 20px 'Segoe UI', Ubuntu, Sans-Serif; fill: #333 }
    .stat-label { font: 400 12px 'Segoe UI', Ubuntu, Sans-Serif; fill: #666 }
    .lang-name { font: 400 12px 'Segoe UI', Ubuntu, Sans-Serif; fill: #333 }
    .lang-percent { font: 400 11px 'Segoe UI', Ubuntu, Sans-Serif; fill: #666 }
    .lang-lines { font: 400 11px 'Segoe UI', Ubuntu, monospace; fill: #666 }
  </style>
  
  <rect width="495" height="350" fill="#fffefe" rx="4.5" stroke="#e4e2e2" stroke-width="1"/>
  
  <g transform="translate(20, 25)">
    <text x="0" y="0" class="header">Code Statistics</text>
    
    <g transform="translate(0, 30)">
      <text x="0" y="0" class="stat-label">Total Lines of Code</text>
      <text x="0" y="20" class="stat-value">52,631</text>
    </g>
    
    <g transform="translate(0, 70)">
      <text x="0" y="0" class="stat-label">Language Distribution</text>
      <g transform="translate(0, 15)">
        <rect x="0" y="0" width="145.7130778438563" height="8" fill="#3776AB" rx="2"/>
      <rect x="145.7130778438563" y="0" width="79.95848454332997" height="8" fill="#555555" rx="2"/>
      <rect x="225.67156238718627" y="0" width="38.12486937356311" height="8" fill="#3178C6" rx="2"/>
      <rect x="263.7964317607494" y="0" width="36.87133058463643" height="8" fill="#E34C26" rx="2"/>
      <rect x="300.6677623453858" y="0" width="35.47082517907697" height="8" fill="#F7DF1E" rx="2"/>
      <rect x="336.13858752446276" y="0" width="18.794436738804126" height="8" fill="#F34B7D" rx="2"/>
      <rect x="354.9330242632669" y="0" width="18.56966426630693" height="8" fill="#563D7C" rx="2"/>
      <rect x="373.5026885295738" y="0" width="17.45444699891699" height="8" fill="#F05138" rx="2"/>
      </g>
    </g>
    
    <g transform="translate(0, 110)">
      
    <g transform="translate(0, 0)">
      <circle cx="5" cy="6" r="5" fill="#3776AB"/>
      <text x="15" y="10" class="lang-name">Python</text>
      <text x="280" y="10" class="lang-percent" text-anchor="end">32.0%</text>
      <text x="440" y="10" class="lang-lines" text-anchor="end">16.9K lines</text>
    </g>

    <g transform="translate(0, 25)">
      <circle cx="5" cy="6" r="5" fill="#555555"/>
      <text x="15" y="10" class="lang-name">Markdown</text>
      <text x="280" y="10" class="lang-percent" text-anchor="end">17.6%</text>
      <text x="440" y="10" class="lang-lines" text-anchor="end">9.2K lines</text>
    </g>

    <g transform="translate(0, 50)">
      <circle cx="5" cy="6" r="5" fill="#3178C6"/>
      <text x="15" y="10" class="lang-name">TypeScript</text>
      <text x="280" y="10" class="lang-percent" text-anchor="end">8.4%</text>
      <text x="440" y="10" class="lang-lines" text-anchor="end">4.4K lines</text>
    </g>

    <g transform="translate(0, 75)">
      <circle cx="5" cy="6" r="5" fill="#E34C26"/>
      <text x="15" y="10" class="lang-name">HTML</text>
      <text x="280" y="10" class="lang-percent" text-anchor="end">8.1%</text>
      <text x="440" y="10" class="lang-lines" text-anchor="end">4.3K lines</text>
    </g>

    <g transform="translate(0, 100)">
      <circle cx="5" cy="6" r="5" fill="#F7DF1E"/>
      <text x="15" y="10" class="lang-name">JavaScript</text>
      <text x="280" y="10" class="lang-percent" text-anchor="end">7.8%</text>
      <text x="440" y="10" class="lang-lines" text-anchor="end">4.1K lines</text>
    </g>

    <g transform="translate(0, 125)">
      <circle cx="5" cy="6" r="5" fill="#F34B7D"/>
      <text x="15" y="10" class="lang-name">C++</text>
      <text x="280" y="10" class="lang-percent" text-anchor="end">4.1%</text>
      <text x="440" y="10" class="lang-lines" text-anchor="end">2.2K lines</text>
    </g>

    <g transform="translate(0, 150)">
      <circle cx="5" cy="6" r="5" fill="#563D7C"/>
      <text x="15" y="10" class="lang-name">CSS</text>
      <text x="280" y="10" class="lang-percent" text-anchor="end">4.1%</text>
      <text x="440" y="10" class="lang-lines" text-anchor="end">2.1K lines</text>
    </g>

    <g transform="translate(0, 175)">
      <circle cx="5" cy="6" r="5" fill="#F05138"/>
      <text x="15" y="10" class="lang-name">Swift</text>
      <text x="280" y="10" class="lang-percent" text-anchor="end">3.8%</text>
      <text x="440" y="10" class="lang-lines" text-anchor="end">2.0K lines</text>
    </g>
    </g>
  </g>
</svg>