<svg width="495" height="350" viewBox="0 0 495 350" 
     xmlns="http://www.w3.org/2000/svg" role="img" 
     aria-labelledby="descId">
  <title id="titleId">Code Statistics</title>
  <desc id="descId">Lines of code statistics for vishwambharaRH</desc>
  
  <style>
    .header { font: 600 18px 'Segoe UI', Ubuntu, Sans-Serif; fill: #2f80ed }
    .stat-value { font: 600 20px 'Segoe UI', Ubuntu, Sans-Serif; fill: #333 }
    .stat-label { font: 400 12px 'Segoe UI', Ubuntu, Sans-Serif; fill: #666 }
    .lang-name { font: 400 12px 'Segoe UI', Ubuntu, Sans-Serif; fill: #333 }
    .lang-percent { font: 400 11px 'Segoe UI', Ubuntu, Sans-Serif; fill: #666 }
    .lang-lines { font: 400 11px 'Segoe UI', Ubuntu, monospace; fill: #666 }
  </style>
  
  <rect width="495" height="350" fill="#fffefe" rx="4.5" stroke="#e4e2e2" stroke-width="1"/>
  
  <g transform="translate(20, 25)">
    <text x="0" y="0" class="header">Code Statistics</text>
    
    <g transform="translate(0, 30)">
      <text x="0" y="0" class="stat-label">Total Lines of Code</text>
      <text x="0" y="20" class="stat-value">52,336</text>
    </g>
    
    <g transform="translate(0, 70)">
      <text x="0" y="0" class="stat-label">Language Distribution</text>
      <g transform="translate(0, 15)">
        <rect x="0" y="0" width="146.50833078569244" height="8" fill="#3776AB" rx="2"/>
      <rect x="146.50833078569244" y="0" width="80.40918297156833" height="8" fill="#555555" rx="2"/>
      <rect x="226.91751375726076" y="0" width="37.079161571384894" height="8" fill="#E34C26" rx="2"/>
      <rect x="263.99667532864567" y="0" width="35.801169367166004" height="8" fill="#3178C6" rx="2"/>
      <rect x="299.79784469581165" y="0" width="35.67076199938857" height="8" fill="#F7DF1E" rx="2"/>
      <rect x="335.4686066952002" y="0" width="18.900374503210028" height="8" fill="#F34B7D" rx="2"/>
      <rect x="354.3689811984102" y="0" width="18.674335065729135" height="8" fill="#563D7C" rx="2"/>
      <rect x="373.0433162641393" y="0" width="17.552831702843168" height="8" fill="#F05138" rx="2"/>
      </g>
    </g>
    
    <g transform="translate(0, 110)">
      
    <g transform="translate(0, 0)">
      <circle cx="5" cy="6" r="5" fill="#3776AB"/>
      <text x="15" y="10" class="lang-name">Python</text>
      <text x="280" y="10" class="lang-percent" text-anchor="end">32.2%</text>
      <text x="440" y="10" class="lang-lines" text-anchor="end">16.9K lines</text>
    </g>

    <g transform="translate(0, 25)">
      <circle cx="5" cy="6" r="5" fill="#555555"/>
      <text x="15" y="10" class="lang-name">Markdown</text>
      <text x="280" y="10" class="lang-percent" text-anchor="end">17.7%</text>
      <text x="440" y="10" class="lang-lines" text-anchor="end">9.2K lines</text>
    </g>

    <g transform="translate(0, 50)">
      <circle cx="5" cy="6" r="5" fill="#E34C26"/>
      <text x="15" y="10" class="lang-name">HTML</text>
      <text x="280" y="10" class="lang-percent" text-anchor="end">8.1%</text>
      <text x="440" y="10" class="lang-lines" text-anchor="end">4.3K lines</text>
    </g>

    <g transform="translate(0, 75)">
      <circle cx="5" cy="6" r="5" fill="#3178C6"/>
      <text x="15" y="10" class="lang-name">TypeScript</text>
      <text x="280" y="10" class="lang-percent" text-anchor="end">7.9%</text>
      <text x="440" y="10" class="lang-lines" text-anchor="end">4.1K lines</text>
    </g>

    <g transform="translate(0, 100)">
      <circle cx="5" cy="6" r="5" fill="#F7DF1E"/>
      <text x="15" y="10" class="lang-name">JavaScript</text>
      <text x="280" y="10" class="lang-percent" text-anchor="end">7.8%</text>
      <text x="440" y="10" class="lang-lines" text-anchor="end">4.1K lines</text>
    </g>

    <g transform="translate(0, 125)">
      <circle cx="5" cy="6" r="5" fill="#F34B7D"/>
      <text x="15" y="10" class="lang-name">C++</text>
      <text x="280" y="10" class="lang-percent" text-anchor="end">4.2%</text>
      <text x="440" y="10" class="lang-lines" text-anchor="end">2.2K lines</text>
    </g>

    <g transform="translate(0, 150)">
      <circle cx="5" cy="6" r="5" fill="#563D7C"/>
      <text x="15" y="10" class="lang-name">CSS</text>
      <text x="280" y="10" class="lang-percent" text-anchor="end">4.1%</text>
      <text x="440" y="10" class="lang-lines" text-anchor="end">2.1K lines</text>
    </g>

    <g transform="translate(0, 175)">
      <circle cx="5" cy="6" r="5" fill="#F05138"/>
      <text x="15" y="10" class="lang-name">Swift</text>
      <text x="280" y="10" class="lang-percent" text-anchor="end">3.9%</text>
      <text x="440" y="10" class="lang-lines" text-anchor="end">2.0K lines</text>
    </g>
    </g>
  </g>
</svg>