<svg width="495" height="350" viewBox="0 0 495 350" 
     xmlns="http://www.w3.org/2000/svg" role="img" 
     aria-labelledby="descId">
  <title id="titleId">Code Statistics</title>
  <desc id="descId">Lines of code statistics for vishwambharaRH</desc>
  
  <style>
    .header { font: 600 18px 'Segoe UI', Ubuntu, Sans-Serif; fill: #2f80ed }
    .stat-value { font: 600 20px 'Segoe UI', Ubuntu, Sans-Serif; fill: #333 }
    .stat-label { font: 400 12px 'Segoe UI', Ubuntu, Sans-Serif; fill: #666 }
    .lang-name { font: 400 12px 'Segoe UI', Ubuntu, Sans-Serif; fill: #333 }
    .lang-percent { font: 400 11px 'Segoe UI', Ubuntu, Sans-Serif; fill: #666 }
    .lang-lines { font: 400 11px 'Segoe UI', Ubuntu, monospace; fill: #666 }
  </style>
  
  <rect width="495" height="350" fill="#fffefe" rx="4.5" stroke="#e4e2e2" stroke-width="1"/>
  
  <g transform="translate(20, 25)">
    <text x="0" y="0" class="header">Code Statistics</text>
    
    <g transform="translate(0, 30)">
      <text x="0" y="0" class="stat-label">Total Lines of Code</text>
      <text x="0" y="20" class="stat-value">46,201</text>
    </g>
    
    <g transform="translate(0, 70)">
      <text x="0" y="0" class="stat-label">Language Distribution</text>
      <g transform="translate(0, 15)">
        <rect x="0" y="0" width="148.07861301703426" height="8" fill="#3776AB" rx="2"/>
      <rect x="148.07861301703426" y="0" width="82.97168892448215" height="8" fill="#555555" rx="2"/>
      <rect x="231.0503019415164" y="0" width="39.737776238609555" height="8" fill="#F7DF1E" rx="2"/>
      <rect x="270.788078180126" y="0" width="39.37339018635961" height="8" fill="#E34C26" rx="2"/>
      <rect x="310.16146836648556" y="0" width="21.410142637605247" height="8" fill="#F34B7D" rx="2"/>
      <rect x="331.5716110040908" y="0" width="20.7306118915175" height="8" fill="#563D7C" rx="2"/>
      <rect x="352.30222289560834" y="0" width="19.88366052682842" height="8" fill="#F05138" rx="2"/>
      <rect x="372.18588342243675" y="0" width="18.583688664747516" height="8" fill="#A8B9CC" rx="2"/>
      </g>
    </g>
    
    <g transform="translate(0, 110)">
      
    <g transform="translate(0, 0)">
      <circle cx="5" cy="6" r="5" fill="#3776AB"/>
      <text x="15" y="10" class="lang-name">Python</text>
      <text x="280" y="10" class="lang-percent" text-anchor="end">32.5%</text>
      <text x="440" y="10" class="lang-lines" text-anchor="end">15.0K lines</text>
    </g>

    <g transform="translate(0, 25)">
      <circle cx="5" cy="6" r="5" fill="#555555"/>
      <text x="15" y="10" class="lang-name">Markdown</text>
      <text x="280" y="10" class="lang-percent" text-anchor="end">18.2%</text>
      <text x="440" y="10" class="lang-lines" text-anchor="end">8.4K lines</text>
    </g>

    <g transform="translate(0, 50)">
      <circle cx="5" cy="6" r="5" fill="#F7DF1E"/>
      <text x="15" y="10" class="lang-name">JavaScript</text>
      <text x="280" y="10" class="lang-percent" text-anchor="end">8.7%</text>
      <text x="440" y="10" class="lang-lines" text-anchor="end">4.0K lines</text>
    </g>

    <g transform="translate(0, 75)">
      <circle cx="5" cy="6" r="5" fill="#E34C26"/>
      <text x="15" y="10" class="lang-name">HTML</text>
      <text x="280" y="10" class="lang-percent" text-anchor="end">8.7%</text>
      <text x="440" y="10" class="lang-lines" text-anchor="end">4.0K lines</text>
    </g>

    <g transform="translate(0, 100)">
      <circle cx="5" cy="6" r="5" fill="#F34B7D"/>
      <text x="15" y="10" class="lang-name">C++</text>
      <text x="280" y="10" class="lang-percent" text-anchor="end">4.7%</text>
      <text x="440" y="10" class="lang-lines" text-anchor="end">2.2K lines</text>
    </g>

    <g transform="translate(0, 125)">
      <circle cx="5" cy="6" r="5" fill="#563D7C"/>
      <text x="15" y="10" class="lang-name">CSS</text>
      <text x="280" y="10" class="lang-percent" text-anchor="end">4.6%</text>
      <text x="440" y="10" class="lang-lines" text-anchor="end">2.1K lines</text>
    </g>

    <g transform="translate(0, 150)">
      <circle cx="5" cy="6" r="5" fill="#F05138"/>
      <text x="15" y="10" class="lang-name">Swift</text>
      <text x="280" y="10" class="lang-percent" text-anchor="end">4.4%</text>
      <text x="440" y="10" class="lang-lines" text-anchor="end">2.0K lines</text>
    </g>

    <g transform="translate(0, 175)">
      <circle cx="5" cy="6" r="5" fill="#A8B9CC"/>
      <text x="15" y="10" class="lang-name">C</text>
      <text x="280" y="10" class="lang-percent" text-anchor="end">4.1%</text>
      <text x="440" y="10" class="lang-lines" text-anchor="end">1.9K lines</text>
    </g>
    </g>
  </g>
</svg>