<svg width="495" height="350" viewBox="0 0 495 350" 
     xmlns="http://www.w3.org/2000/svg" role="img" 
     aria-labelledby="descId">
  <title id="titleId">Code Statistics</title>
  <desc id="descId">Lines of code statistics for vishwambharaRH</desc>
  
  <style>
    .header { font: 600 18px 'Segoe UI', Ubuntu, Sans-Serif; fill: #2f80ed }
    .stat-value { font: 600 20px 'Segoe UI', Ubuntu, Sans-Serif; fill: #333 }
    .stat-label { font: 400 12px 'Segoe UI', Ubuntu, Sans-Serif; fill: #666 }
    .lang-name { font: 400 12px 'Segoe UI', Ubuntu, Sans-Serif; fill: #333 }
    .lang-percent { font: 400 11px 'Segoe UI', Ubuntu, Sans-Serif; fill: #666 }
    .lang-lines { font: 400 11px 'Segoe UI', Ubuntu, monospace; fill: #666 }
  </style>
  
  <rect width="495" height="350" fill="#fffefe" rx="4.5" stroke="#e4e2e2" stroke-width="1"/>
  
  <g transform="translate(20, 25)">
    <text x="0" y="0" class="header">Code Statistics</text>
    
    <g transform="translate(0, 30)">
      <text x="0" y="0" class="stat-label">Total Lines of Code</text>
      <text x="0" y="20" class="stat-value">51,162</text>
    </g>
    
    <g transform="translate(0, 70)">
      <text x="0" y="0" class="stat-label">Language Distribution</text>
      <g transform="translate(0, 15)">
        <rect x="0" y="0" width="144.43639810797077" height="8" fill="#3776AB" rx="2"/>
      <rect x="144.43639810797077" y="0" width="82.25430983933389" height="8" fill="#555555" rx="2"/>
      <rect x="226.69070794730465" y="0" width="36.08019623939643" height="8" fill="#F7DF1E" rx="2"/>
      <rect x="262.77090418670105" y="0" width="35.671103553418554" height="8" fill="#E34C26" rx="2"/>
      <rect x="298.4420077401196" y="0" width="34.57722528439076" height="8" fill="#3178C6" rx="2"/>
      <rect x="333.01923302451036" y="0" width="19.33407607208475" height="8" fill="#F34B7D" rx="2"/>
      <rect x="352.3533090965951" y="0" width="18.818263554982213" height="8" fill="#563D7C" rx="2"/>
      <rect x="371.1715726515773" y="0" width="17.955611586724523" height="8" fill="#F05138" rx="2"/>
      </g>
    </g>
    
    <g transform="translate(0, 110)">
      
    <g transform="translate(0, 0)">
      <circle cx="5" cy="6" r="5" fill="#3776AB"/>
      <text x="15" y="10" class="lang-name">Python</text>
      <text x="280" y="10" class="lang-percent" text-anchor="end">31.7%</text>
      <text x="440" y="10" class="lang-lines" text-anchor="end">16.2K lines</text>
    </g>

    <g transform="translate(0, 25)">
      <circle cx="5" cy="6" r="5" fill="#555555"/>
      <text x="15" y="10" class="lang-name">Markdown</text>
      <text x="280" y="10" class="lang-percent" text-anchor="end">18.1%</text>
      <text x="440" y="10" class="lang-lines" text-anchor="end">9.2K lines</text>
    </g>

    <g transform="translate(0, 50)">
      <circle cx="5" cy="6" r="5" fill="#F7DF1E"/>
      <text x="15" y="10" class="lang-name">JavaScript</text>
      <text x="280" y="10" class="lang-percent" text-anchor="end">7.9%</text>
      <text x="440" y="10" class="lang-lines" text-anchor="end">4.1K lines</text>
    </g>

    <g transform="translate(0, 75)">
      <circle cx="5" cy="6" r="5" fill="#E34C26"/>
      <text x="15" y="10" class="lang-name">HTML</text>
      <text x="280" y="10" class="lang-percent" text-anchor="end">7.8%</text>
      <text x="440" y="10" class="lang-lines" text-anchor="end">4.0K lines</text>
    </g>

    <g transform="translate(0, 100)">
      <circle cx="5" cy="6" r="5" fill="#3178C6"/>
      <text x="15" y="10" class="lang-name">TypeScript</text>
      <text x="280" y="10" class="lang-percent" text-anchor="end">7.6%</text>
      <text x="440" y="10" class="lang-lines" text-anchor="end">3.9K lines</text>
    </g>

    <g transform="translate(0, 125)">
      <circle cx="5" cy="6" r="5" fill="#F34B7D"/>
      <text x="15" y="10" class="lang-name">C++</text>
      <text x="280" y="10" class="lang-percent" text-anchor="end">4.2%</text>
      <text x="440" y="10" class="lang-lines" text-anchor="end">2.2K lines</text>
    </g>

    <g transform="translate(0, 150)">
      <circle cx="5" cy="6" r="5" fill="#563D7C"/>
      <text x="15" y="10" class="lang-name">CSS</text>
      <text x="280" y="10" class="lang-percent" text-anchor="end">4.1%</text>
      <text x="440" y="10" class="lang-lines" text-anchor="end">2.1K lines</text>
    </g>

    <g transform="translate(0, 175)">
      <circle cx="5" cy="6" r="5" fill="#F05138"/>
      <text x="15" y="10" class="lang-name">Swift</text>
      <text x="280" y="10" class="lang-percent" text-anchor="end">3.9%</text>
      <text x="440" y="10" class="lang-lines" text-anchor="end">2.0K lines</text>
    </g>
    </g>
  </g>
</svg>